<?xml version="1.0" encoding="utf-8"?>
<!DOCTYPE svg PUBLIC "-//W3C//DTD SVG 1.1 Tiny//EN" "http://www.w3.org/Graphics/SVG/1.1/DTD/svg11-tiny.dtd">
<svg xmlns="http://www.w3.org/2000/svg" version="1.1" width="377px" height="377px">
	<g transform="translate(-400, -129)">
		
		<path fill="none" stroke="#66bb6a " stroke-width="16" d="M587.292,496.425    c38.579,0,69.91-7.392,78.466-20.394c12.764-36.211,32.2-83.336,30.383-124.655c-2.148-48.857-33.524-72.285-34.328-111.097    c-1.479-71.384-22.917-102.313-74.521-102.313c-51.602,0-73.041,30.929-74.52,102.313c-0.804,38.812-32.18,62.241-34.328,111.097    c-1.817,41.319,17.619,88.444,30.383,124.655C517.383,489.033,548.714,496.425,587.292,496.425z"/>
		
		<path fill="none" stroke="#ef5350" stroke-width="16" d="M587.292,464.926    c23.046,0,41.762-4.415,46.872-12.183c7.624-21.63,19.235-49.78,18.149-74.463c-1.283-29.185-20.026-43.18-20.506-66.365    c-0.884-42.641-13.69-61.117-44.516-61.117s-43.632,18.476-44.515,61.117c-0.48,23.186-19.223,37.181-20.506,66.365    c-1.086,24.683,10.524,52.833,18.149,74.463C545.531,460.511,564.247,464.926,587.292,464.926z"/>
	</g>
</svg>